<svg class="" width="700" height="480" viewBox="0 0 700 480" fill="none" xmlns="http://www.w3.org/2000/svg">
    <rect x="-0.00285524" y="0.495269" width="179" height="179" rx="15.5" transform="matrix(0.865865 0.500278 -0.871576 0.490261 203.662 29.727)" fill="#E4E4E7"></rect>
    <rect x="-0.00285524" y="0.495269" width="179" height="179" rx="15.5" transform="matrix(0.865865 0.500278 -0.871576 0.490261 203.662 29.727)" stroke="#A1A1AA"></rect>
    <path d="M342.607 106.632C342.607 105.528 343.502 104.632 344.607 104.632L347.903 104.632C349.007 104.632 349.903 105.528 349.903 106.632L349.903 119.848C349.903 120.953 349.007 121.848 347.903 121.848L344.607 121.848C343.502 121.848 342.607 120.953 342.607 119.848L342.607 106.632Z" fill="#E4E4E7"></path>
    <path d="M55.6094 103.146L62.6768 103.146L62.6768 117.654L55.6094 117.654L55.6094 103.146Z" fill="#E4E4E7"></path>
    <path d="M55.1094 117.654L55.1094 101.654M61.1093 125.654L61.1093 109.654M209.709 202.199L209.709 186.199M350.398 120.228L350.398 104.228M193.917 201.615L193.917 185.615" stroke="#A1A1AA"></path>
    <g clip-path="url(#bbbclip0_20115_2)">
        <rect width="180" height="180" rx="16" transform="matrix(0.865865 0.500278 -0.871576 0.490261 203.317 13.4731)" fill="white"></rect>
    </g>
    <rect x="-0.00285524" y="0.495269" width="179" height="179" rx="15.5" transform="matrix(0.865865 0.500278 -0.871576 0.490261 203.748 13.727)" stroke="#A1A1AA"></rect>
    <line x1="344.593" y1="127.512" x2="344.593" y2="111.512" stroke="#A1A1AA"></line>
</svg>